HIERARCHY
ROOT Hips
{
	OFFSET 0.000000 0.000000 0.000000
	CHANNELS 6 Xposition Yposition Zposition Xrotation Yrotation Zrotation
	JOINT LeftUpLeg_virtual
	{
		OFFSET 0.000000 0.000000 0.000000
		CHANNELS 3 Xrotation Yrotation Zrotation
		JOINT LeftUpLeg
		{
			OFFSET 11.394100 -6.187798 -0.413800
			CHANNELS 3 Xrotation Yrotation Zrotation
			JOINT LeftLeg
			{
				OFFSET 0.430247 -32.302673 3.732800
				CHANNELS 3 Xrotation Yrotation Zrotation
				JOINT LeftFoot
				{
					OFFSET -0.430247 -48.264931 -6.423300
					CHANNELS 3 Xrotation Yrotation Zrotation
					JOINT LeftToeBase
					{
						OFFSET 4.230900 -16.068199 23.438400
						CHANNELS 3 Xrotation Yrotation Zrotation
						JOINT LeftToe_End
						{
							OFFSET 4.510700 0.695400 19.974600
							CHANNELS 3 Xrotation Yrotation Zrotation
							End Site
							{
								OFFSET 0 0 0
							}
						}
					}
				}
			}
		}
	}
	JOINT RightUpLeg_virtual
	{
		OFFSET 0.000000 0.000000 0.000000
		CHANNELS 3 Xrotation Yrotation Zrotation
		JOINT RightUpLeg
		{
			OFFSET -11.333700 -6.187798 -0.413800
			CHANNELS 3 Xrotation Yrotation Zrotation
			JOINT RightLeg
			{
				OFFSET -0.430392 -32.302628 3.733000
				CHANNELS 3 Xrotation Yrotation Zrotation
				JOINT RightFoot
				{
					OFFSET 0.430392 -48.264973 -6.423500
					CHANNELS 3 Xrotation Yrotation Zrotation
					JOINT RightToeBase
					{
						OFFSET -4.230900 -16.068199 23.438400
						CHANNELS 3 Xrotation Yrotation Zrotation
						JOINT RightToe_End
						{
							OFFSET -4.510700 0.695400 19.974600
							CHANNELS 3 Xrotation Yrotation Zrotation
							End Site
							{
								OFFSET 0 0 0
							}
						}
					}
				}
			}
		}
	}
	JOINT Spine_virtual
	{
		OFFSET 0.000000 0.000000 0.000000
		CHANNELS 3 Xrotation Yrotation Zrotation
		JOINT Spine
		{
			OFFSET -0.002400 12.777504 0.315300
			CHANNELS 3 Xrotation Yrotation Zrotation
			JOINT Spine1
			{
				OFFSET -0.002067 5.816869 0.032633
				CHANNELS 3 Xrotation Yrotation Zrotation
				JOINT Spine1_split
				{
					OFFSET -0.002067 5.816869 0.032633
					CHANNELS 3 Xrotation Yrotation Zrotation
					JOINT Spine2
					{
						OFFSET -0.002067 5.816869 0.032633
						CHANNELS 3 Xrotation Yrotation Zrotation
						JOINT Neck_virtual
						{
							OFFSET 0.000000 0.000000 0.000000
							CHANNELS 3 Xrotation Yrotation Zrotation
							JOINT Neck
							{
								OFFSET -0.003700 21.199493 -0.826900
								CHANNELS 3 Xrotation Yrotation Zrotation
								JOINT Head
								{
									OFFSET 0.000000 20.442200 4.834800
									CHANNELS 3 Xrotation Yrotation Zrotation
									JOINT HeadTop_End
									{
										OFFSET 0.000000 34.668396 4.968400
										CHANNELS 3 Xrotation Yrotation Zrotation
										End Site
										{
											OFFSET 0 0 0
										}
									}
								}
							}
						}
						JOINT LeftShoulder_virtual
						{
							OFFSET 0.000000 0.000000 0.000000
							CHANNELS 3 Xrotation Yrotation Zrotation
							JOINT LeftShoulder
							{
								OFFSET 3.288150 8.794197 -1.372250
								CHANNELS 3 Xrotation Yrotation Zrotation
								JOINT LeftShoulder_split
								{
									OFFSET 3.288150 8.794197 -1.372250
									CHANNELS 3 Xrotation Yrotation Zrotation
									JOINT LeftArm
									{
										OFFSET 11.953299 -2.279007 -0.146200
										CHANNELS 3 Xrotation Yrotation Zrotation
										JOINT LeftForeArm
										{
											OFFSET 18.448900 0.000000 0.000000
											CHANNELS 3 Xrotation Yrotation Zrotation
											JOINT LeftHand
											{
												OFFSET 29.527798 0.000000 0.000000
												CHANNELS 3 Xrotation Yrotation Zrotation
												End Site
												{
													OFFSET 0 0 0
												}
											}
										}
									}
								}
							}
						}
						JOINT RightShoulder_virtual
						{
							OFFSET 0.000000 0.000000 0.000000
							CHANNELS 3 Xrotation Yrotation Zrotation
							JOINT RightShoulder
							{
								OFFSET -3.249400 8.794197 -1.372250
								CHANNELS 3 Xrotation Yrotation Zrotation
								JOINT RightShoulder_split
								{
									OFFSET -3.249400 8.794197 -1.372250
									CHANNELS 3 Xrotation Yrotation Zrotation
									JOINT RightArm
									{
										OFFSET -11.953299 -2.279007 -0.146200
										CHANNELS 3 Xrotation Yrotation Zrotation
										JOINT RightForeArm
										{
											OFFSET -18.448900 0.000000 0.000000
											CHANNELS 3 Xrotation Yrotation Zrotation
											JOINT RightHand
											{
												OFFSET -29.527802 0.000000 0.000000
												CHANNELS 3 Xrotation Yrotation Zrotation
												End Site
												{
													OFFSET 0 0 0
												}
											}
										}
									}
								}
							}
						}
					}
				}
			}
		}
	}
}
MOTION
Frames: 5
Frame Time: 0.03333333
2.333663 77.472679 -55.243538 0.000000 0.000000 0.000000 29.136412 -72.443855 26.828500 -51.003939 -2.379913 24.666158 72.417381 -1.195735 2.498058 -14.704940 15.700575 -23.779170 -6.866033 -4.504078 -2.707290 0.000000 0.000000 0.000000 31.780249 -72.328275 29.768802 -57.940850 1.319781 -10.259403 76.935019 8.055523 -7.686257 -30.186031 -4.344947 18.579776 3.836455 5.450788 -43.425977 0.000000 0.000000 0.000000 27.421289 -71.047286 24.293012 2.027237 16.535990 -0.693493 12.748025 13.514315 -6.796469 0.328957 -1.250222 0.212387 0.000000 0.000000 0.000000 14.331081 14.586234 -6.315964 -3.741039 3.192101 12.127703 -33.556241 -17.421915 -13.936391 0.000000 0.000000 0.000000 10.167484 13.672553 -6.459794 7.517390 -7.666435 9.558288 2.258376 3.276482 -3.365416 -95.141742 -26.169052 -66.389575 11.787588 -69.782458 4.248595 0.000000 0.000000 0.000000 11.310500 13.455947 -6.042343 7.854734 -6.061151 -10.598676 -12.072428 3.503355 -0.514742 -56.252694 4.373797 24.111029 -16.412050 37.016832 18.095901 0.000000 0.000000 0.000000 
3.639231 75.624367 -55.673721 0.000000 0.000000 0.000000 33.980297 -70.555895 31.841263 -58.751566 -3.950090 25.228458 74.279462 -2.552321 2.691615 -14.066612 15.191396 -24.230480 -5.174551 -4.464818 -3.051962 0.000000 0.000000 0.000000 34.080079 -70.438935 32.620372 -62.345461 2.900070 -10.691742 80.791774 7.546804 -7.165132 -30.439664 -4.918428 19.244304 3.221937 5.626228 -41.512192 0.000000 0.000000 0.000000 31.125394 -68.676125 28.344901 4.606995 15.832192 -0.890153 13.112385 13.025942 -6.801107 0.331840 -1.438939 0.169536 0.000000 0.000000 0.000000 14.317390 14.120268 -5.949976 -4.742430 3.066200 12.423311 -36.132052 -9.230976 -14.705392 0.000000 0.000000 0.000000 10.229939 13.183296 -6.665877 6.493047 -8.440528 7.680014 1.168213 4.127410 -3.796824 -79.034441 -17.972552 -60.590717 15.897672 -69.733745 7.356909 0.000000 0.000000 0.000000 11.604313 13.143878 -5.837790 7.284256 -7.189497 -6.733060 -13.437204 4.567162 -0.849268 -47.066140 0.324727 24.050653 -13.457263 35.162770 19.669485 0.000000 0.000000 0.000000 
4.546403 74.456558 -55.688599 0.000000 0.000000 0.000000 37.806607 -68.729878 36.160958 -65.096218 -4.744679 25.442407 74.514755 -3.786707 2.787644 -12.299565 14.314830 -23.512422 -5.073518 -4.513418 -3.751583 0.000000 0.000000 0.000000 35.562551 -68.493062 34.934089 -66.342884 4.992584 -11.351029 83.283543 7.434388 -6.800335 -29.574859 -5.092072 21.001191 2.327123 5.812830 -38.209123 0.000000 0.000000 0.000000 33.514427 -66.308098 31.296084 6.772195 15.032311 -0.889357 13.398207 12.490333 -6.678325 0.319716 -1.538216 0.103384 0.000000 0.000000 0.000000 14.385780 13.576572 -5.484699 -6.134531 2.776012 12.533017 -37.696692 -1.282735 -15.349573 0.000000 0.000000 0.000000 10.217445 12.694024 -6.770698 5.531301 -8.578803 6.121324 0.451511 4.504578 -3.616898 -62.603779 -8.600939 -57.925899 17.456317 -67.169842 8.668082 0.000000 0.000000 0.000000 11.928463 12.753248 -5.601436 6.942602 -7.655949 -3.277065 -14.148085 5.790667 -1.078627 -37.022033 -6.128756 25.989454 -10.401501 34.208804 20.691157 0.000000 0.000000 0.000000 
5.132568 73.782928 -55.670555 0.000000 0.000000 0.000000 39.612085 -66.978761 38.636529 -69.600693 -4.798682 25.490339 73.807857 -5.115734 2.842310 -9.978622 13.125616 -22.212610 -6.085813 -4.527422 -4.877073 0.000000 0.000000 0.000000 36.182295 -66.622539 36.403269 -68.939866 7.096080 -12.010346 84.472788 7.757121 -6.798410 -28.820352 -4.938280 23.705428 0.686530 6.235781 -34.092145 0.000000 0.000000 0.000000 34.242989 -64.248844 32.748882 8.333162 14.278825 -0.530347 13.620650 11.966906 -6.535408 0.268690 -1.514499 0.101681 0.000000 0.000000 0.000000 14.490994 12.999760 -5.086109 -7.780147 2.374580 12.385689 -38.217285 5.738146 -15.784413 0.000000 0.000000 0.000000 10.268078 12.200480 -6.894991 4.688352 -8.272776 4.808060 0.029427 4.355820 -3.002501 -46.665505 0.173409 -59.197229 17.609461 -63.444739 8.966817 0.000000 0.000000 0.000000 12.349446 12.334921 -5.427724 6.781623 -7.120391 -0.021152 -14.786233 6.753028 -1.171124 -26.102275 -13.547553 30.407999 -7.357123 33.392791 20.929417 0.000000 0.000000 0.000000 
5.263963 73.574097 -55.587204 0.000000 0.000000 0.000000 39.010123 -65.460116 38.876228 -71.730544 -4.204550 25.361411 72.147848 -6.593401 2.842607 -7.920964 11.817585 -20.738302 -7.693260 -4.402476 -6.092847 0.000000 0.000000 0.000000 35.794016 -64.706043 36.635137 -69.254744 8.669764 -12.789587 84.327496 8.292013 -7.062356 -28.763279 -4.768636 26.375643 -0.999728 6.719119 -29.650398 0.000000 0.000000 0.000000 33.326856 -62.474490 32.571448 9.255672 13.655806 0.184784 13.766268 11.447621 -6.445091 0.134398 -1.438369 0.132138 0.000000 0.000000 0.000000 14.596708 12.410174 -4.876468 -9.528401 2.016762 11.952527 -37.923891 11.203060 -15.971870 0.000000 0.000000 0.000000 10.462184 11.674544 -7.125897 3.940999 -7.813787 3.679511 -0.661864 4.106863 -2.442014 -32.385615 7.070865 -63.677895 17.491001 -59.671524 9.088228 0.000000 0.000000 0.000000 12.870205 11.901842 -5.351086 6.701963 -5.549928 2.971633 -15.300034 7.444157 -1.053705 -15.653986 -20.145079 36.553926 -4.638034 32.021802 20.410910 0.000000 0.000000 0.000000 
